<svg id="Layer_1" data-name="Layer 1" xmlns="http://www.w3.org/2000/svg" viewBox="0 0 174.75 26.37"><defs><style>.cls-1{fill:#f9f9f9;}</style></defs><title>mobile-logo</title><path class="cls-1" d="M41.34,36c0,.59-.17.83-.55.83a.75.75,0,0,1-.41-.21,5.26,5.26,0,0,0-3.51-1.34,5.06,5.06,0,0,0-5.06,5.28,5,5,0,0,0,5,5.29,5.17,5.17,0,0,0,3.65-1.48.91.91,0,0,1,.41-.18c.38,0,.55.28.55.8v1c0,.52,0,.63-.2.77a7.8,7.8,0,0,1-4.34,1.38,7.54,7.54,0,1,1,0-15.07,7.68,7.68,0,0,1,4.23,1.24c.18.14.21.25.21.76Zm17.87,4.56a7.56,7.56,0,1,1-7.54-7.53A7.46,7.46,0,0,1,59.21,40.58Zm-12.6.11a5,5,0,1,0,10.08-.11A5,5,0,0,0,51.6,35.3C48.67,35.3,46.61,37.54,46.61,40.69ZM74.46,36c0,.59-.17.83-.55.83a.77.77,0,0,1-.42-.21A5.22,5.22,0,0,0,70,35.3a5.06,5.06,0,0,0-5.06,5.28,5,5,0,0,0,5,5.29,5.17,5.17,0,0,0,3.65-1.48.91.91,0,0,1,.41-.18c.38,0,.55.28.55.8v1c0,.52,0,.63-.2.77A7.8,7.8,0,0,1,70,48.12a7.54,7.54,0,1,1,0-15.07,7.68,7.68,0,0,1,4.23,1.24c.17.14.21.25.21.76Zm11.16-2.25c.41-.41.41-.41,1-.41h1.07c.62,0,.86.17.86.55,0,.14-.14.35-.41.63l-4.92,4.94,6.23,7.05a1.53,1.53,0,0,1,.38.65c0,.35-.28.52-.9.52H87.85c-.62,0-.62,0-1-.45l-5.37-6.08-.62.62v5c0,.8-.11.9-.9.9h-.65c-.8,0-.9-.1-.9-.9V23.41c0-.8.1-.9.9-.9H80c.79,0,.9.1.9.9V38.65Zm10,13c0,.8-.1.9-.89.9h-.66c-.79,0-.89-.1-.89-.9V35.64H92.6c-.79,0-.89-.1-.89-.9v-.48c0-.8.1-.9.89-.9h.59V29.07c0-.79.1-.89.89-.89h.66c.79,0,.89.1.89.89v4.29h1.65c.8,0,.9.1.9.9v.48c0,.8-.1.9-.9.9H95.63Zm16.06-1.1a6,6,0,0,1-4.92,2.42c-4,0-6.88-3.22-6.88-7.64S102.78,33,106.7,33a6.06,6.06,0,0,1,5,2.39V34.26c0-.8.11-.9.93-.9h.66c.79,0,.89.1.89.9V46.8c0,.8-.1.9-.89.9h-.66c-.82,0-.93-.1-.93-.9Zm-9.29-5.08c0,3,2,5.25,4.71,5.25s4.76-2.25,4.76-5.36-2-5.25-4.79-5.25S102.4,37.51,102.4,40.62Zm19.83-12.69a1.76,1.76,0,1,1-1.75-1.76A1.77,1.77,0,0,1,122.23,27.93Zm-.55,18.87c0,.8-.1.9-.89.9h-.66c-.79,0-.89-.1-.89-.9V34.26c0-.8.1-.9.89-.9h.66c.79,0,.89.1.89.9Zm7.31,0c0,.8-.1.9-.89.9h-.66c-.79,0-.89-.1-.89-.9V23.41c0-.8.1-.9.89-.9h.66c.79,0,.89.1.89.9Zm11.44-10.5a2.11,2.11,0,0,1-.58.24c-.17,0-.24-.07-.45-.31a2.35,2.35,0,0,0-1.75-.93,1.68,1.68,0,0,0-1.72,1.59c0,.82.48,1.27,2.3,2A10.9,10.9,0,0,1,141,40.31a3.75,3.75,0,0,1,1.58,3.14,4.68,4.68,0,0,1-4.89,4.67,5.16,5.16,0,0,1-4.41-2.39,2.54,2.54,0,0,1-.44-1c0-.28.13-.38.65-.62l.55-.21a1.65,1.65,0,0,1,.59-.21c.2,0,.31.11.58.59a2.8,2.8,0,0,0,2.48,1.59,2.25,2.25,0,0,0,2.38-2.25c0-1.1-.49-1.62-2.34-2.38-3.31-1.45-4.14-2.28-4.14-4.18a4,4,0,0,1,4.17-4,4.2,4.2,0,0,1,3.58,2,.77.77,0,0,1,.14.41c0,.25-.11.38-.59.63ZM157,35.5c0,.94-.1,1.21-.48,1.21a1.14,1.14,0,0,1-.41-.1,5,5,0,0,0-2.41-.59,4.2,4.2,0,1,0-.07,8.4A6.26,6.26,0,0,0,156,43.9a1,1,0,0,1,.45-.14c.35,0,.48.31.48,1.18v1.38c0,.76,0,.83-.24,1a8.16,8.16,0,0,1-11.74-7,8,8,0,0,1,8.2-8.06,7.25,7.25,0,0,1,3.54.83c.21.18.24.28.24,1Zm7.71,11c0,1-.17,1.21-1.17,1.17h-1.83c-1,0-1.2-.17-1.17-1.17V23c0-1,.18-1.21,1.17-1.17h1.83c1,0,1.2.17,1.17,1.17ZM173,41.21c0,2.24,1,3.42,3.07,3.42s3-1.18,3-3.42v-7.3c0-1,.18-1.21,1.18-1.17h1.82c1,0,1.2.17,1.17,1.17v8c0,4-2.58,6.29-7.19,6.29s-7.23-2.25-7.23-6.29v-8c0-1,.17-1.21,1.17-1.17h1.82c1,0,1.21.17,1.17,1.17Zm18.81-6.54a6.13,6.13,0,0,1,5-2.42c4.13,0,7.26,3.46,7.26,7.92s-3.13,8-7.33,8a5.79,5.79,0,0,1-4.89-2.42v.76c0,1-.17,1.21-1.17,1.17h-1.82c-1,0-1.21-.17-1.18-1.17V23c0-1,.18-1.21,1.18-1.17h1.82c1,0,1.2.17,1.17,1.17Zm-.45,5.53a4.23,4.23,0,0,0,4.2,4.22,4.2,4.2,0,1,0-4.2-4.22Z" transform="translate(-29.29 -21.81)"/></svg>