<svg id="Capa_1" enable-background="new 0 0 512 512" height="512" viewBox="0 0 512 512" width="512" xmlns="http://www.w3.org/2000/svg"><g><g><path d="m256 0c-105.465 0-191.267 85.802-191.267 191.267 0 60.803 30.678 131.866 91.181 211.214 44.344 58.157 100.086 109.519 100.086 109.519l48.69-328.09z" fill="#2453b3"/><path d="m256 0v512s55.714-50.996 100.073-109.004c26.21-34.275 47.138-67.702 62.202-99.353 19.238-40.421 28.993-78.23 28.993-112.376-.001-105.465-85.803-191.267-191.268-191.267z" fill="#1f3399"/></g><g><g><path d="m256 169.388h-34.768l-11.661-43.44 11.661-45.071h34.768z" fill="#ffc31a"/></g><g><path d="m221.232 180.978v-100.101h-22.56c-29.306 0-53.063 23.757-53.063 53.063v48.846c0 62.799 48.698 114.218 110.391 118.568l15.002-38.104-15.002-38.409c-19.924-4.657-34.768-22.52-34.768-43.863z" fill="#ffe673"/></g><path d="m277.88 226.035v-34.768h88.511v34.768l-44.256 21.508z" fill="#ff9b00"/><path d="m266.289 226.035c-3.542 0-6.983-.422-10.289-1.194v76.513c2.802.198 5.629.304 8.482.304h48.846c29.306 0 53.063-23.757 53.063-53.063v-22.56z" fill="#ffc31a"/></g></g></svg>